<svg width="33" height="26" viewBox="0 0 33 26" fill="none" xmlns="http://www.w3.org/2000/svg">
<path d="M32.3336 14.4541L31.0544 13.1748C30.8753 12.9956 30.6322 12.8949 30.3788 12.8949H28.2905V11.9315C28.2905 11.4038 27.8627 10.976 27.335 10.976H24.6547L21.6717 7.99299C21.4926 7.81381 21.2495 7.7131 20.9961 7.7131H19.7174V5.78623H22.4033C22.931 5.78623 23.3588 5.35843 23.3588 4.83075V2.87439C23.3588 1.28945 22.0694 0 20.4844 0H12.6376C11.0526 0 9.76317 1.28945 9.76317 2.87439V4.83082C9.76317 5.35849 10.191 5.78629 10.7186 5.78629H13.4045V7.71317H12.1259C11.8724 7.71317 11.6294 7.81381 11.4503 7.99306L8.61055 10.8329H0.955475C0.427798 10.8329 0 11.2607 0 11.7883V15.2256C0 15.4488 0.0780941 15.6649 0.220778 15.8365L0.809287 16.5444V21.9736C0.809287 22.5012 1.23709 22.929 1.76476 22.929L8.73756 22.9802L11.805 25.7533C11.9806 25.9121 12.209 26 12.4458 26H27.335C27.8627 26 28.2905 25.5722 28.2905 25.0445V24.0811H30.3788C30.6323 24.0811 30.8753 23.9804 31.0544 23.8012L32.3336 22.5219C32.5128 22.3428 32.6135 22.0998 32.6135 21.8464V15.1298C32.6135 14.8763 32.5129 14.6334 32.3336 14.4541ZM11.6741 2.87439C11.6741 2.34314 12.1063 1.91095 12.6376 1.91095H20.4844C21.0156 1.91095 21.4478 2.34314 21.4478 2.87439V3.87534H11.6741V2.87439ZM15.3155 5.78629H17.8064V7.71317H15.3155V5.78629ZM2.49946 15.5882L1.91095 14.8803V12.7438H4.68469V21.0181H2.72024V16.1991C2.72024 15.9759 2.64214 15.7598 2.49946 15.5882ZM26.3795 24.0891H12.8136L9.75285 21.322C9.58125 21.1668 9.35913 21.0792 9.12784 21.0754L6.59564 21.0338V12.7438H9.00631C9.25976 12.7438 9.50277 12.6432 9.68189 12.4639L12.5216 9.62412H20.6003L23.5833 12.6071C23.7624 12.7863 24.0055 12.887 24.2589 12.887H26.3794L26.3795 24.0891ZM30.7026 21.4506L29.9831 22.1701H28.2905V14.8059H29.983L30.7026 15.5254V21.4506Z" fill="#2266D3"/>
<path d="M17.4154 12.5731C17.2536 12.2494 16.9228 12.0449 16.5608 12.0449C16.1989 12.0449 15.8681 12.2494 15.7062 12.5731L13.5743 16.8369C13.053 17.8795 13.1077 19.094 13.7205 20.0855C14.3334 21.077 15.3951 21.669 16.5608 21.669C17.7265 21.669 18.7884 21.077 19.4011 20.0855C20.014 19.0939 20.0686 17.8794 19.5473 16.8369L17.4154 12.5731ZM17.7756 19.0808C17.5096 19.5113 17.0668 19.7581 16.5609 19.7581C16.0549 19.7581 15.6121 19.5113 15.3462 19.0808C15.0801 18.6504 15.0574 18.144 15.2836 17.6914L16.561 15.1368L17.8382 17.6914C18.0644 18.144 18.0416 18.6504 17.7756 19.0808Z" fill="#2266D3"/>
</svg>
