<svg width="26" height="26" viewBox="0 0 26 26" fill="none" xmlns="http://www.w3.org/2000/svg">
<path d="M9.70089 20.9607C8.97442 21.2019 8.28821 21.4297 6.88182 21.4297C5.47488 21.4297 4.78847 21.2019 4.06174 20.9607C3.25208 20.6919 2.41485 20.4141 0.761719 20.4141C0.341047 20.4141 0 20.7551 0 21.1758C0 21.5965 0.341047 21.9375 0.761719 21.9375C2.16866 21.9375 2.85513 22.1653 3.58186 22.4065C4.39151 22.6752 5.22869 22.9531 6.88182 22.9531C8.5345 22.9531 9.37148 22.6752 10.1809 22.4065C10.9074 22.1653 11.5936 21.9375 13 21.9375C14.4064 21.9375 15.0926 22.1653 15.8191 22.4065C16.6285 22.6752 17.4655 22.9531 19.1181 22.9531C20.7713 22.9531 21.6085 22.6752 22.4181 22.4065C23.1449 22.1653 23.8313 21.9375 25.2383 21.9375C25.659 21.9375 26 21.5965 26 21.1758C26 20.7551 25.659 20.4141 25.2383 20.4141C23.5851 20.4141 22.7479 20.6919 21.9383 20.9607C21.3514 21.1555 20.7906 21.3415 19.8555 21.4059V12.4414C19.8555 7.2375 15.8205 2.95831 10.7148 2.56806V0.761719C10.7148 0.341047 10.3738 0 9.95312 0H6.90625C6.48558 0 6.14453 0.341047 6.14453 0.761719V1.52344H0.8125C0.391828 1.52344 0.0507812 1.86448 0.0507812 2.28516V11.4258C0.0507812 11.8465 0.391828 12.1875 0.8125 12.1875H6.14453V12.9492C6.14453 13.3699 6.48558 13.7109 6.90625 13.7109H9.95312C10.3738 13.7109 10.7148 13.3699 10.7148 12.9492V11.3029C11.6014 11.6173 12.2383 12.464 12.2383 13.457V20.4361C11.0695 20.5066 10.3754 20.7367 9.70089 20.9607ZM6.14453 10.6641H1.57422V9.14062H6.14453V10.6641ZM6.14453 7.61719H1.57422V6.09375H6.14453V7.61719ZM6.14453 4.57031H1.57422V3.04688H6.14453V4.57031ZM9.19141 12.1875H7.66797V1.52344H9.19141V12.1875ZM10.7148 9.72507V4.09749C14.9793 4.48363 18.332 8.07803 18.332 12.4414V21.4023C17.4268 21.3348 16.8754 21.152 16.2991 20.9607C15.6246 20.7367 14.9306 20.5066 13.7617 20.4361V13.457C13.7617 11.6177 12.4512 10.079 10.7148 9.72507Z" fill="#2266D3"/>
<path d="M25.2383 23.4609C23.5851 23.4609 22.7479 23.7388 21.9383 24.0075C21.2115 24.2488 20.5251 24.4766 19.1182 24.4766C17.7118 24.4766 17.0256 24.2488 16.2991 24.0075C15.4897 23.7388 14.6527 23.4609 13 23.4609C11.3473 23.4609 10.5103 23.7388 9.70089 24.0075C8.97442 24.2488 8.28821 24.4766 6.88182 24.4766C5.47488 24.4766 4.78847 24.2488 4.06174 24.0075C3.25208 23.7388 2.41485 23.4609 0.761719 23.4609C0.341047 23.4609 0 23.802 0 24.2227C0 24.6433 0.341047 24.9844 0.761719 24.9844C2.16866 24.9844 2.85513 25.2122 3.58186 25.4534C4.39151 25.7221 5.22869 26 6.88182 26C8.5345 26 9.37148 25.7221 10.1809 25.4534C10.9074 25.2122 11.5936 24.9844 13 24.9844C14.4064 24.9844 15.0926 25.2122 15.8191 25.4534C16.6285 25.7221 17.4655 26 19.1181 26C20.7713 26 21.6085 25.7221 22.4181 25.4534C23.1449 25.2122 23.8313 24.9844 25.2383 24.9844C25.659 24.9844 26 24.6433 26 24.2227C26 23.802 25.659 23.4609 25.2383 23.4609Z" fill="#2266D3"/>
<path d="M14.2821 9.83943C14.431 10.046 14.6641 10.1558 14.9008 10.1558C15.055 10.1558 15.2107 10.1091 15.3455 10.0121C15.6868 9.7661 15.764 9.29003 15.5181 8.94878C14.9541 8.16609 14.2155 7.49704 13.3822 7.01391C13.0183 6.80307 12.5521 6.92697 12.3411 7.29087C12.1301 7.65487 12.2542 8.12094 12.6181 8.33194C13.2672 8.70818 13.8426 9.2295 14.2821 9.83943Z" fill="#2266D3"/>
<path d="M15.2852 12.9492V17.5195C15.2852 17.9402 15.6262 18.2812 16.0469 18.2812C16.4675 18.2812 16.8086 17.9402 16.8086 17.5195V12.9492C16.8086 12.5285 16.4675 12.1875 16.0469 12.1875C15.6262 12.1875 15.2852 12.5285 15.2852 12.9492Z" fill="#2266D3"/>
</svg>
