<svg width="27" height="26" viewBox="0 0 27 26" fill="none" xmlns="http://www.w3.org/2000/svg">
<path d="M11.8587 9.63234L12.2014 11.6887C12.2814 12.1689 11.9111 12.6061 11.4242 12.6061H2.36364C2.0809 12.6061 1.81984 12.4546 1.67957 12.2091C0.563367 10.2557 0 8.28395 0 6.30303C0 4.32211 0.563367 2.35033 1.67957 0.396981C1.81984 0.151498 2.0809 0 2.36364 0H24.4242C24.707 0 24.968 0.151498 25.1083 0.396981C26.2245 2.35033 26.7879 4.32211 26.7879 6.30303C26.7879 8.28395 26.2245 10.2557 25.1083 12.2091C24.968 12.4546 24.707 12.6061 24.4242 12.6061H15.3636C15.0869 12.6061 14.8304 12.4609 14.688 12.2235L13.5062 10.2538C13.394 10.0669 13.3643 9.84172 13.4243 9.63204L14.0957 7.28192L13.3939 6.46318V7.09091C13.3939 7.24646 13.3479 7.39852 13.2616 7.52795L11.8587 9.63234ZM1.57576 6.30303C1.57576 7.86856 1.99091 9.44188 2.82949 11.0303H10.4942L10.2531 9.58407C10.2202 9.38663 10.2637 9.18406 10.3747 9.01751L11.8182 6.85236V4.33333C11.8182 3.60186 12.7282 3.26522 13.2043 3.82059L15.5679 6.57817C15.7401 6.77905 15.7999 7.05295 15.7273 7.30735L15.0333 9.73625L15.8097 11.0303H23.9584C24.797 9.44188 25.2121 7.86856 25.2121 6.30303C25.2121 4.7375 24.797 3.16418 23.9584 1.57576H2.82949C1.99091 3.16418 1.57576 4.7375 1.57576 6.30303ZM13.3939 26C11.2183 26 9.45455 24.2363 9.45455 22.0606C9.45455 20.3865 10.5924 18.3953 12.8176 16.0082C13.1292 15.674 13.6587 15.674 13.9702 16.0082C16.1955 18.3953 17.3333 20.3865 17.3333 22.0606C17.3333 24.2363 15.5696 26 13.3939 26ZM11.0303 22.0606C11.0303 23.366 12.0885 24.4242 13.3939 24.4242C14.6993 24.4242 15.7576 23.366 15.7576 22.0606C15.7576 21.009 14.9818 19.5435 13.3939 17.7213C11.806 19.5435 11.0303 21.009 11.0303 22.0606Z" fill="#2266D3"/>
</svg>
