<svg width="26" height="26" viewBox="0 0 26 26" fill="none" xmlns="http://www.w3.org/2000/svg">
<path fill-rule="evenodd" clip-rule="evenodd" d="M25.0714 26H0.928571C0.416 26 0 25.584 0 25.0714C0 24.5589 0.416 24.1429 0.928571 24.1429H1.85714V2.78571C1.85714 2.04657 2.15057 1.33807 2.67336 0.816216C3.19521 0.29343 3.90371 0 4.64286 0H10.2143C10.7269 0 11.1429 0.416 11.1429 0.928571C11.1429 1.44114 10.7269 1.85714 10.2143 1.85714H8.19743C8.30236 2.15243 8.35714 2.46629 8.35714 2.78571V4.64286H16.7143C18.2529 4.64286 19.5 5.88993 19.5 7.42857V12.0714C19.5 13.0975 18.6689 13.9286 17.6429 13.9286H15.5824C14.7299 13.9286 13.9871 13.3482 13.78 12.5218L13.3798 10.9172C13.2758 10.504 12.9043 10.2143 12.4781 10.2143H10.2143C9.70171 10.2143 9.28571 10.6303 9.28571 11.1429V24.1429H25.0714C25.584 24.1429 26 24.5589 26 25.0714C26 25.584 25.584 26 25.0714 26ZM3.71429 7.42857V24.1429H7.42857V11.1429C7.42857 9.60421 8.67564 8.35714 10.2143 8.35714H12.4781C13.7568 8.35714 14.8711 9.22721 15.1812 10.4669L15.5824 12.0714H17.6429V7.42857C17.6429 6.916 17.2269 6.5 16.7143 6.5H4.64286C4.13029 6.5 3.71429 6.916 3.71429 7.42857ZM5.57143 1.85714H4.64286C4.39679 1.85714 4.16 1.95464 3.98636 2.12921C3.81178 2.30286 3.71429 2.53964 3.71429 2.78571V4.80164C4.00493 4.69857 4.31693 4.64286 4.64286 4.64286H6.5V2.78571C6.5 2.53964 6.4025 2.30286 6.22793 2.12921C6.05429 1.95464 5.8175 1.85714 5.57143 1.85714Z" fill="#2266D3"/>
</svg>
