<svg id="visual" viewBox="0 0 900 10" width="900" height="10" xmlns="http://www.w3.org/2000/svg" xmlns:xlink="http://www.w3.org/1999/xlink" version="1.1"><rect x="0" y="0" width="900" height="10" fill="#0f45a5"></rect><path d="M0 7L6.5 6.8C13 6.7 26 6.3 39 5.5C52 4.7 65 3.3 78 3.3C91 3.3 104 4.7 117.2 4.8C130.3 5 143.7 4 156.8 4.2C170 4.3 183 5.7 196 6.2C209 6.7 222 6.3 235 6.2C248 6 261 6 274 6.2C287 6.3 300 6.7 313 5.8C326 5 339 3 352 2.7C365 2.3 378 3.7 391 3.5C404 3.3 417 1.7 430.2 1.3C443.3 1 456.7 2 469.8 3C483 4 496 5 509 5.2C522 5.3 535 4.7 548 4.2C561 3.7 574 3.3 587 3.8C600 4.3 613 5.7 626 6.2C639 6.7 652 6.3 665 5.5C678 4.7 691 3.3 704 3.3C717 3.3 730 4.7 743.2 5C756.3 5.3 769.7 4.7 782.8 5C796 5.3 809 6.7 822 7C835 7.3 848 6.7 861 5.8C874 5 887 4 893.5 3.5L900 3L900 11L893.5 11C887 11 874 11 861 11C848 11 835 11 822 11C809 11 796 11 782.8 11C769.7 11 756.3 11 743.2 11C730 11 717 11 704 11C691 11 678 11 665 11C652 11 639 11 626 11C613 11 600 11 587 11C574 11 561 11 548 11C535 11 522 11 509 11C496 11 483 11 469.8 11C456.7 11 443.3 11 430.2 11C417 11 404 11 391 11C378 11 365 11 352 11C339 11 326 11 313 11C300 11 287 11 274 11C261 11 248 11 235 11C222 11 209 11 196 11C183 11 170 11 156.8 11C143.7 11 130.3 11 117.2 11C104 11 91 11 78 11C65 11 52 11 39 11C26 11 13 11 6.5 11L0 11Z" fill="#8cdbff" stroke-linecap="round" stroke-linejoin="miter"></path></svg>